<svg xmlns="http://www.w3.org/2000/svg" width="100%" viewBox="0 0 680 280" preserveAspectRatio="xMidYMid slice" role="img">
<title>Falcon Friends — the cruise</title>
<desc>An original classic-coupe silhouette cruising a sunset highway, wheels spinning.</desc>
<defs>
<linearGradient id="fsky" x1="0" y1="0" x2="0" y2="1">
<stop offset="0" stop-color="#2a1747"/><stop offset="0.42" stop-color="#7a2d6a"/><stop offset="0.7" stop-color="#e0612f"/><stop offset="1" stop-color="#ffce5a"/>
</linearGradient>
<radialGradient id="fsun" cx="50%" cy="50%" r="50%"><stop offset="0" stop-color="#fff3c4"/><stop offset="0.55" stop-color="#ffd166"/><stop offset="1" stop-color="#ff9e4f" stop-opacity="0"/></radialGradient>
<g id="whl">
<circle r="26" fill="#15110d"/><circle r="26" fill="none" stroke="#2a2118" stroke-width="3"/>
<circle r="11" fill="#cdb066"/>
<g stroke="#e9d28a" stroke-width="3" stroke-linecap="round"><line x1="0" y1="-22" x2="0" y2="22"/><line x1="-22" y1="0" x2="22" y2="0"/><line x1="-15" y1="-15" x2="15" y2="15"/><line x1="-15" y1="15" x2="15" y2="-15"/></g>
<circle r="4" fill="#3a2e16"/>
</g>
</defs>

<rect x="0" y="0" width="680" height="196" fill="url(#fsky)"/>
<circle cx="468" cy="150" r="120" fill="url(#fsun)"/>
<circle cx="468" cy="158" r="50" fill="#ffe08a"/>
<path d="M0,176 C90,150 150,164 240,150 C320,138 380,160 470,150 C560,140 620,160 680,150 L680,196 L0,196 Z" fill="#3a1f3e"/>
<g fill="#241433"><path d="M70,196 C70,176 76,166 84,160 C92,166 98,176 98,196 Z"/><path d="M86,196 C86,182 90,176 96,172 C100,178 102,186 102,196 Z"/></g>

<rect x="0" y="196" width="680" height="84" fill="#241a33"/>
<rect x="0" y="196" width="680" height="4" fill="#3a2a50"/>
<g stroke="#d8c074" stroke-width="5" stroke-dasharray="34 28" opacity="0.85"><line x1="0" y1="238" x2="680" y2="238"/></g>

<g>
<path d="M132,214 C140,196 156,190 180,190 L214,168 C228,160 246,156 276,156 L398,156 C432,156 452,164 470,182 L520,188 C544,191 558,200 560,214 Z" fill="#b81d2a" stroke="#7a0e18" stroke-width="3"/>
<path d="M226,168 C238,160 252,158 276,158 L356,158 L356,186 L214,186 Z" fill="#2a3b5c" opacity="0.9"/>
<path d="M364,158 L394,158 C420,158 438,166 452,182 L364,186 Z" fill="#2a3b5c" opacity="0.9"/>
<rect x="132" y="208" width="430" height="10" rx="5" fill="#d9d2c4"/>
<path d="M556,196 L572,196 C576,196 578,200 576,204 L560,206 Z" fill="#e9d28a"/>
<circle cx="138" cy="200" r="5" fill="#ffe9a8"/>
</g>
<g transform="translate(206,214)"><g><animateTransform attributeName="transform" type="rotate" from="0 0 0" to="360 0 0" dur="1.1s" repeatCount="indefinite"/><use href="#whl"/></g></g>
<g transform="translate(488,214)"><g><animateTransform attributeName="transform" type="rotate" from="0 0 0" to="360 0 0" dur="1.1s" repeatCount="indefinite"/><use href="#whl"/></g></g>

<text x="20" y="270" font-family="Georgia, serif" font-size="13" fill="#f0d9a8">Falcon Friends · the cruise</text>
</svg>
